<svg width="44" height="44" viewBox="0 0 44 44" fill="none" xmlns="http://www.w3.org/2000/svg">
<path fill-rule="evenodd" clip-rule="evenodd" d="M4.80842 0.773524C3.77705 -0.257841 2.10488 -0.257841 1.07351 0.773524C0.0421483 1.80489 0.0421483 3.47706 1.07351 4.50843L18.0702 21.5051L1.07351 38.5018C0.0421465 39.5331 0.0421463 41.2053 1.07351 42.2367C2.10488 43.2681 3.77705 43.2681 4.80842 42.2367L21.8051 25.24L38.8018 42.2367C39.8331 43.268 41.5053 43.268 42.5367 42.2367C43.568 41.2053 43.568 39.5331 42.5367 38.5018L25.54 21.5051L42.5367 4.50844C43.568 3.47707 43.568 1.80489 42.5367 0.773531C41.5053 -0.257837 39.8331 -0.257837 38.8018 0.773531L21.8051 17.7702L4.80842 0.773524Z" fill="#707070"/>
</svg>
